<svg width="24" height="25" viewBox="0 0 24 25" fill="none" xmlns="http://www.w3.org/2000/svg">
<g clip-path="url(#clip0_1_31)">
<path d="M16.4426 0.613434C16.4972 0.613434 16.5518 0.613434 16.6095 0.613434C16.7435 2.26859 16.1117 3.50532 15.3439 4.40091C14.5906 5.29033 13.5589 6.15294 11.8904 6.02206C11.7791 4.39061 12.4119 3.2456 13.1786 2.35207C13.8898 1.51934 15.1935 0.778331 16.4426 0.613434Z" fill="black"/>
<path d="M21.4936 17.8411C21.4936 17.8575 21.4936 17.872 21.4936 17.8874C21.0246 19.3076 20.3558 20.5248 19.5395 21.6543C18.7944 22.6798 17.8813 24.0597 16.2509 24.0597C14.842 24.0597 13.9062 23.1538 12.4623 23.1291C10.935 23.1044 10.095 23.8866 8.69857 24.0834C8.53883 24.0834 8.37909 24.0834 8.22243 24.0834C7.19698 23.935 6.3694 23.1229 5.7665 22.3912C3.9887 20.229 2.6149 17.436 2.35931 13.8619C2.35931 13.5115 2.35931 13.1621 2.35931 12.8117C2.46753 10.2537 3.71044 8.17397 5.3625 7.16603C6.23439 6.63012 7.43299 6.17356 8.76762 6.37762C9.33961 6.46625 9.92396 6.66207 10.4362 6.85582C10.9216 7.04236 11.5286 7.37318 12.1037 7.35566C12.4933 7.34433 12.8808 7.1413 13.2734 6.99804C14.4236 6.58271 15.5511 6.10657 17.0372 6.33021C18.8233 6.60023 20.0909 7.3938 20.8742 8.61816C19.3633 9.57971 18.1688 11.0287 18.3729 13.5032C18.5543 15.751 19.8611 17.066 21.4936 17.8411Z" fill="black"/>
</g>
<defs>
<clipPath id="clip0_1_31">
<rect width="23.47" height="23.47" fill="white" transform="translate(0.190918 0.613434)"/>
</clipPath>
</defs>
</svg>
