<svg width="29" height="29" viewBox="0 0 29 29" fill="none" xmlns="http://www.w3.org/2000/svg">
<path d="M25.8667 14.1117C25.8667 13.2621 25.7994 12.4078 25.6557 11.572H14.1334V16.3851H20.7317C20.4579 17.9374 19.5781 19.3106 18.2899 20.1832V23.3062H22.2264C24.5381 21.1293 25.8667 17.9144 25.8667 14.1117Z" fill="#4285F4"/>
<path d="M14.1826 25.9139C17.3452 25.9139 20.0123 24.9141 21.9556 23.1883L18.1768 20.3673C17.1255 21.056 15.7682 21.4459 14.1869 21.4459C11.1277 21.4459 8.53384 19.4588 7.60315 16.7872H3.70374V19.6953C5.69438 23.5077 9.74891 25.9139 14.1826 25.9139Z" fill="#34A853"/>
<path d="M7.61484 16.4031C7.11673 14.9606 7.11673 13.3986 7.61484 11.9561V8.96436H3.66495C1.97838 12.2463 1.97838 16.1129 3.66495 19.3948L7.61484 16.4031Z" fill="#FBBC04"/>
<path d="M14.1407 6.91157C15.8058 6.8867 17.4152 7.49205 18.6211 8.60324L21.9556 5.38161C19.8442 3.46604 17.0418 2.41289 14.1407 2.44606C9.72474 2.44606 5.68642 4.85088 3.70374 8.66544L7.58327 11.572C8.50595 8.89763 11.0937 6.91157 14.1407 6.91157Z" fill="#EA4335"/>
</svg>
